<svg xmlns="http://www.w3.org/2000/svg" xmlns:xlink="http://www.w3.org/1999/xlink" viewBox="0 0 900 900"><defs><style>.cls-1{fill:url(#Orange_Yellow);}.cls-2{fill:#27aae1;}</style><linearGradient id="Orange_Yellow" x1="259.05" y1="468.4" x2="642.17" y2="468.4" gradientUnits="userSpaceOnUse"><stop offset="0" stop-color="#fff33b"/><stop offset="0.04" stop-color="#fee72e"/><stop offset="0.12" stop-color="#fed51b"/><stop offset="0.2" stop-color="#fdca10"/><stop offset="0.28" stop-color="#fdc70c"/><stop offset="0.67" stop-color="#f3903f"/><stop offset="0.89" stop-color="#ed683c"/><stop offset="1" stop-color="#e93e3a"/></linearGradient></defs><g id="Layer_1"><rect class="cls-1" x="259.05" y="276.84" width="383.11" height="383.11" transform="translate(463.19 -181.44) rotate(45)"/></g><g id="Layer_2"><path class="cls-2" d="M441.12,478H341.45a46.15,46.15,0,0,1,.88-31.12h33.4q-3.51-19.5-22-19.51-12.3,0-20,10.46T326,464.68q0,17.06,7.47,27.6t19.6,10.54q9.84,0,19-9.84l37.44,45q-26.19,20.57-58.18,20.56-39,0-65.57-26.19t-26.54-64.86q0-38.49,26.81-65t65.83-26.54q38.13,0,64.07,25.93t25.93,63.89Q441.83,469.6,441.12,478Z"/><path class="cls-2" d="M551.51,376.08q37.28,0,63.9,26.81T642,467.14q0,38-27,64.69t-65.13,26.71q-38.14,0-65.21-26.8t-27.07-64.6q0-38.5,27.07-64.78T551.51,376.08ZM549.76,441a24,24,0,0,0-17.93,7.64,27.2,27.2,0,0,0,.08,37.36,24.66,24.66,0,0,0,35.86,0,27.21,27.21,0,0,0,.09-37.36A24.21,24.21,0,0,0,549.76,441Z"/></g></svg>